<?xml version="1.0" encoding="UTF-8"?><svg id="Capa_1" xmlns="http://www.w3.org/2000/svg" viewBox="0 0 983.93 318.88"><defs><style>.cls-1{fill:#70d44b;}.cls-2{fill:#00263a;}</style></defs><path class="cls-1" d="M433.11,159.44h-80.69L467.49,5.27h68.8l115.07,154.17h-80.69l-68.79-95.08-68.78,95.08Z"/><path class="cls-2" d="M162.12,318.88C66.07,318.88,0,251.49,0,160.35v-.88C0,71.78,68.29,0,161.66,0c55.52,0,89,14.97,121.15,42.29l-42.74,51.55c-23.79-19.86-44.92-31.33-80.59-31.33-49.33,0-88.56,43.61-88.56,96.05v.92c0,56.37,38.77,97.75,93.41,97.75,24.67,0,46.63-6.16,63.86-18.48v-44.08h-68.27v-58.52h133.9v133.85c-31.74,26.92-75.34,48.89-131.7,48.89Z"/><path class="cls-2" d="M926.23,313.63l-149.37-196.01v196.01h-66.9V5.27h62.54l144.49,189.83V5.27h66.94V313.63h-57.7Z"/></svg>