<?xml version="1.0" encoding="utf-8"?>
<!-- Generator: Adobe Illustrator 26.3.1, SVG Export Plug-In . SVG Version: 6.00 Build 0)  -->
<svg version="1.1" id="logo" xmlns="http://www.w3.org/2000/svg" xmlns:xlink="http://www.w3.org/1999/xlink" x="0px" y="0px"
	 viewBox="0 0 425 289" style="enable-background:new 0 0 425 289;" xml:space="preserve">
<style type="text/css">
	.st0{fill:#70D44B;}
	.st1{fill:#00263A;}
</style>
<g>
	<path class="st0" d="M187.22,144.5h-34.66l49.43-66.23h29.55l49.43,66.23h-34.66l-29.55-40.84L187.22,144.5L187.22,144.5z"/>
	<path class="st1" d="M70.81,212.99c-41.26,0-69.64-28.95-69.64-68.1v-0.38c0-37.67,29.33-68.5,69.44-68.5
		c23.85,0,38.23,6.43,52.04,18.17l-18.36,22.14c-10.22-8.53-19.3-13.46-34.62-13.46c-21.19,0-38.04,18.73-38.04,41.26v0.4
		c0,24.21,16.65,41.99,40.13,41.99c10.6,0,20.03-2.65,27.43-7.94v-18.93H69.87v-25.14h57.52v57.5
		C113.75,203.55,95.02,212.99,70.81,212.99L70.81,212.99z"/>
	<path class="st1" d="M399.04,210.73l-64.16-84.2v84.2h-28.74V78.27h26.86l62.07,81.54V78.27h28.75v132.46H399.04L399.04,210.73z"/>
</g>
</svg>
