<?xml version="1.0" encoding="utf-8"?>
<!-- Generator: Adobe Illustrator 26.3.1, SVG Export Plug-In . SVG Version: 6.00 Build 0)  -->
<svg version="1.1" id="Capa_1" xmlns="http://www.w3.org/2000/svg" xmlns:xlink="http://www.w3.org/1999/xlink" x="0px" y="0px"
	 viewBox="0 0 595.5 61.6" style="enable-background:new 0 0 595.5 61.6;" xml:space="preserve">
<style type="text/css">
	.st0{fill:#94D357;}
	.st1{fill:#172A3C;}
	.st2{fill:#FFFFFF;}
</style>
<path class="st0" d="M-326.2,24.6h-10l14.2-19h8.5l14.2,19h-10l-8.5-11.7L-326.2,24.6z"/>
<path class="st1" d="M-539.4,44.3c-11.9,0-20-8.3-20-19.6v-0.1c0-10.8,8.4-19.7,20-19.7c6.9,0,11,1.8,15,5.2l-5.3,6.4
	c-2.9-2.5-5.5-3.9-10-3.9c-6.1,0-10.9,5.4-10.9,11.9v0.1c0,7,4.8,12.1,11.5,12.1c3,0,5.8-0.8,7.9-2.3v-5.4h-8.4v-7.2h16.5v16.5
	C-527,41.5-532.4,44.3-539.4,44.3z"/>
<path class="st1" d="M-488.4,43.6l-8.2-12.2h-6.6v12.2h-8.4V5.5h17.4c9,0,14.4,4.7,14.4,12.6v0.1c0,6.1-3.3,10-8.2,11.8l9.3,13.6
	H-488.4z M-488.2,18.5c0-3.6-2.5-5.4-6.6-5.4h-8.3V24h8.5c4.1,0,6.4-2.2,6.4-5.4V18.5z"/>
<path class="st1" d="M-452.8,44.2c-10.2,0-16.5-5.7-16.5-16.9V5.5h8.4v21.6c0,6.2,3.1,9.4,8.2,9.4c5.1,0,8.2-3.1,8.2-9.1V5.5h8.4V27
	C-436.1,38.5-442.6,44.2-452.8,44.2z"/>
<path class="st1" d="M-409.3,32.2h-6.4v11.4h-8.4V5.5h15.6c9.1,0,14.6,5.4,14.6,13.2v0.1C-393.9,27.6-400.7,32.2-409.3,32.2z
	 M-402.4,18.8c0-3.8-2.6-5.8-6.8-5.8h-6.5v11.6h6.6c4.2,0,6.6-2.5,6.6-5.8V18.8z"/>
<path class="st1" d="M-365.7,44.3c-11.8,0-20.2-8.8-20.2-19.6v-0.1c0-10.8,8.5-19.7,20.3-19.7c11.8,0,20.2,8.8,20.2,19.6v0.1
	C-345.4,35.4-353.9,44.3-365.7,44.3z M-354.1,24.6c0-6.5-4.8-12-11.5-12c-6.7,0-11.4,5.3-11.4,11.9v0.1c0,6.5,4.8,12,11.5,12
	c6.7,0,11.4-5.3,11.4-11.9V24.6z"/>
<path class="st1" d="M-261.8,43.6l-18.5-24.2v24.2h-8.3V5.5h7.7L-263,29V5.5h8.3v38.1H-261.8z"/>
<path class="st1" d="M-223.5,44.3c-11.8,0-20.2-8.8-20.2-19.6v-0.1c0-10.8,8.5-19.7,20.3-19.7c11.8,0,20.2,8.8,20.2,19.6v0.1
	C-203.2,35.4-211.8,44.3-223.5,44.3z M-212,24.6c0-6.5-4.8-12-11.5-12c-6.7,0-11.4,5.3-11.4,11.9v0.1c0,6.5,4.8,12,11.5,12
	c6.7,0,11.4-5.3,11.4-11.9V24.6z"/>
<path class="st1" d="M-169.1,43.6l-8.2-12.2h-6.6v12.2h-8.4V5.5h17.4c9,0,14.4,4.7,14.4,12.6v0.1c0,6.1-3.3,10-8.2,11.8l9.3,13.6
	H-169.1z M-169,18.5c0-3.6-2.5-5.4-6.6-5.4h-8.3V24h8.5c4.1,0,6.4-2.2,6.4-5.4V18.5z"/>
<path class="st1" d="M-132.2,13.2v30.4h-8.4V13.2h-11.6V5.5h31.6v7.7H-132.2z"/>
<path class="st1" d="M-110.6,43.6V5.5h28.7V13h-20.4v7.7h18v7.5h-18v8h20.7v7.5H-110.6z"/>
<path class="st0" d="M292.1,31.8h-12.4l17.6-23.6h10.5l17.6,23.6h-12.4l-10.5-14.6L292.1,31.8z"/>
<path class="st1" d="M27.5,56.2c-14.7,0-24.9-10.3-24.9-24.3v-0.1c0-13.4,10.5-24.4,24.8-24.4c8.5,0,13.6,2.3,18.6,6.5l-6.6,7.9
	c-3.6-3-6.9-4.8-12.4-4.8c-7.6,0-13.6,6.7-13.6,14.7v0.1c0,8.6,5.9,15,14.3,15c3.8,0,7.1-0.9,9.8-2.8v-6.8H27.2v-9h20.5v20.5
	C42.8,52.9,36.1,56.2,27.5,56.2z"/>
<path class="st1" d="M90.7,55.4L80.6,40.3h-8.2v15.1H62V8.1h21.6c11.1,0,17.8,5.9,17.8,15.6v0.1c0,7.6-4.1,12.4-10.1,14.6l11.5,16.9
	H90.7z M90.9,24.3c0-4.5-3.1-6.7-8.2-6.7H72.4v13.6H83c5.1,0,8-2.7,8-6.7V24.3z"/>
<path class="st1" d="M134.9,56.2c-12.7,0-20.5-7.1-20.5-21v-27h10.4v26.7c0,7.7,3.8,11.7,10.2,11.7c6.3,0,10.2-3.8,10.2-11.3V8.1
	h10.4v26.7C155.7,49.1,147.6,56.2,134.9,56.2z"/>
<path class="st1" d="M188.9,41.2H181v14.2h-10.4V8.1h19.3c11.3,0,18.1,6.7,18.1,16.3v0.1C208,35.6,199.5,41.2,188.9,41.2z
	 M197.5,24.7c0-4.7-3.2-7.2-8.4-7.2h-8V32h8.2c5.2,0,8.2-3.1,8.2-7.2V24.7z"/>
<path class="st1" d="M243,56.2c-14.6,0-25-10.9-25-24.3v-0.1c0-13.4,10.6-24.4,25.2-24.4c14.6,0,25,10.9,25,24.3v0.1
	C268.2,45.2,257.6,56.2,243,56.2z M257.4,31.8c0-8.1-5.9-14.9-14.3-14.9c-8.4,0-14.2,6.6-14.2,14.7v0.1c0,8.1,5.9,14.8,14.3,14.8
	c8.4,0,14.2-6.6,14.2-14.7V31.8z"/>
<path class="st1" d="M371.9,55.4l-22.9-30v30h-10.3V8.1h9.6l22.1,29.1V8.1h10.3v47.3H371.9z"/>
<path class="st1" d="M419.4,56.2c-14.6,0-25.1-10.9-25.1-24.3v-0.1c0-13.4,10.6-24.4,25.2-24.4c14.6,0,25,10.9,25,24.3v0.1
	C444.6,45.2,434,56.2,419.4,56.2z M433.7,31.8c0-8.1-5.9-14.9-14.3-14.9c-8.4,0-14.2,6.6-14.2,14.7v0.1c0,8.1,5.9,14.8,14.3,14.8
	c8.4,0,14.2-6.6,14.2-14.7V31.8z"/>
<path class="st1" d="M486.9,55.4l-10.1-15.1h-8.2v15.1h-10.4V8.1h21.6c11.1,0,17.8,5.9,17.8,15.6v0.1c0,7.6-4.1,12.4-10.1,14.6
	L499,55.4H486.9z M487.1,24.3c0-4.5-3.1-6.7-8.2-6.7h-10.3v13.6h10.5c5.1,0,8-2.7,8-6.7V24.3z"/>
<path class="st1" d="M532.8,17.7v37.7h-10.4V17.7H508V8.1h39.2v9.6H532.8z"/>
<path class="st1" d="M559.5,55.4V8.1h35.7v9.3h-25.3V27h22.3v9.3h-22.3v9.9h25.7v9.2H559.5z"/>
<path class="st0" d="M290.7-198.8h-12.4l17.7-23.7h10.6l17.7,23.7h-12.4l-10.6-14.6L290.7-198.8z"/>
<path class="st2" d="M25-174.3c-14.8,0-25-10.4-25-24.4v-0.1c0-13.5,10.5-24.6,24.9-24.6c8.5,0,13.7,2.3,18.7,6.5l-6.6,7.9
	c-3.7-3.1-6.9-4.8-12.4-4.8c-7.6,0-13.6,6.7-13.6,14.8v0.1c0,8.7,6,15.1,14.4,15.1c3.8,0,7.2-0.9,9.8-2.8v-6.8H24.6v-9h20.6v20.6
	C40.4-177.7,33.6-174.3,25-174.3z"/>
<path class="st2" d="M88.5-175.1l-10.2-15.2h-8.2v15.2H59.6v-47.5h21.7c11.2,0,17.9,5.9,17.9,15.7v0.1c0,7.7-4.1,12.5-10.2,14.7
	l11.6,17H88.5z M88.7-206.4c0-4.5-3.1-6.8-8.2-6.8H70.1v13.6h10.6c5.1,0,8-2.7,8-6.7V-206.4z"/>
<path class="st2" d="M132.9-174.4c-12.7,0-20.6-7.1-20.6-21.1v-27.1h10.4v26.9c0,7.7,3.9,11.7,10.2,11.7c6.4,0,10.2-3.9,10.2-11.4
	v-27.2h10.4v26.8C153.7-181.4,145.6-174.4,132.9-174.4z"/>
<path class="st2" d="M187.1-189.3h-7.9v14.2h-10.4v-47.5h19.4c11.3,0,18.2,6.7,18.2,16.4v0.1C206.3-195,197.7-189.3,187.1-189.3z
	 M195.7-206c0-4.7-3.3-7.2-8.5-7.2h-8.1v14.5h8.3c5.2,0,8.3-3.1,8.3-7.2V-206z"/>
<path class="st2" d="M241.5-174.3c-14.6,0-25.2-10.9-25.2-24.4v-0.1c0-13.5,10.6-24.6,25.3-24.6c14.7,0,25.2,10.9,25.2,24.4v0.1
	C266.8-185.3,256.1-174.3,241.5-174.3z M255.8-198.8c0-8.1-6-14.9-14.4-14.9c-8.4,0-14.2,6.6-14.2,14.8v0.1c0,8.1,6,14.9,14.4,14.9
	c8.4,0,14.2-6.6,14.2-14.8V-198.8z"/>
<path class="st2" d="M370.9-175.1l-23-30.2v30.2h-10.3v-47.5h9.6l22.2,29.2v-29.2h10.3v47.5H370.9z"/>
<path class="st2" d="M418.6-174.3c-14.7,0-25.2-10.9-25.2-24.4v-0.1c0-13.5,10.6-24.6,25.3-24.6c14.6,0,25.2,10.9,25.2,24.4v0.1
	C443.9-185.3,433.3-174.3,418.6-174.3z M433-198.8c0-8.1-6-14.9-14.4-14.9c-8.4,0-14.2,6.6-14.2,14.8v0.1c0,8.1,6,14.9,14.4,14.9
	c8.4,0,14.2-6.6,14.2-14.8V-198.8z"/>
<path class="st2" d="M486.4-175.1l-10.2-15.2H468v15.2h-10.4v-47.5h21.7c11.2,0,17.9,5.9,17.9,15.7v0.1c0,7.7-4.1,12.5-10.2,14.7
	l11.6,17H486.4z M486.6-206.4c0-4.5-3.1-6.8-8.2-6.8H468v13.6h10.6c5.1,0,8-2.7,8-6.7V-206.4z"/>
<path class="st2" d="M532.5-213v37.9h-10.4V-213h-14.5v-9.6h39.3v9.6H532.5z"/>
<path class="st2" d="M559.3-175.1v-47.5h35.8v9.3h-25.4v9.6h22.4v9.3h-22.4v10h25.8v9.3H559.3z"/>
</svg>
